<?xml version="1.0" standalone="no"?>
<!DOCTYPE svg PUBLIC "-//W3C//DTD SVG 20010904//EN"
 "http://www.w3.org/TR/2001/REC-SVG-20010904/DTD/svg10.dtd">
<svg version="1.0" xmlns="http://www.w3.org/2000/svg"
 width="576.000000pt" height="576.000000pt" viewBox="0 0 576.000000 576.000000"
 preserveAspectRatio="xMidYMid meet">
<metadata>
Created by potrace 1.11, written by Peter Selinger 2001-2013
</metadata>
<g transform="translate(0.000000,576.000000) scale(0.100000,-0.100000)"
fill="#000000" stroke="none">
<path d="M1614 4802 c-64 -3 -74 -6 -99 -32 -16 -17 -25 -30 -21 -30 4 0 0
-12 -8 -27 -9 -16 -27 -57 -41 -93 -14 -36 -30 -74 -35 -85 -30 -68 -50 -115
-50 -120 0 -3 -11 -30 -24 -60 -14 -29 -54 -124 -90 -211 -35 -88 -73 -177
-82 -199 -10 -22 -18 -42 -19 -45 -2 -7 -16 -39 -42 -99 -12 -29 -23 -60 -23
-67 0 -8 -4 -14 -10 -14 -5 0 -10 -7 -10 -15 0 -15 -21 -67 -52 -127 -11 -21
-17 -38 -13 -38 3 0 -2 -11 -11 -24 -8 -14 -15 -26 -14 -28 2 -3 -11 -36 -31
-83 -31 -70 -161 -382 -163 -390 -4 -13 -20 -53 -44 -108 -20 -44 -33 -79 -34
-87 0 -3 -6 -16 -13 -30 -8 -14 -32 -70 -55 -125 -23 -55 -48 -114 -56 -132
-8 -17 -14 -34 -14 -38 0 -3 -10 -27 -22 -53 -12 -26 -22 -49 -23 -52 -1 -3
-9 -22 -18 -44 -9 -21 -17 -40 -17 -43 0 -2 -11 -29 -25 -59 -14 -30 -25 -57
-25 -59 0 -4 -84 -205 -100 -240 -9 -18 -31 -73 -35 -85 -1 -3 -7 -18 -15 -35
-42 -97 -50 -115 -56 -139 -3 -14 -11 -26 -17 -26 -6 0 -8 -3 -5 -6 3 -3 -9
-40 -27 -82 -159 -374 -177 -423 -171 -469 5 -47 41 -104 76 -123 24 -13 150
-29 150 -20 0 4 19 4 42 1 24 -4 60 -4 80 0 21 3 40 4 42 1 7 -6 106 -8 106
-2 0 8 104 6 110 -2 3 -3 28 5 56 19 39 19 56 35 72 67 16 33 57 161 78 246 2
8 15 53 29 100 14 47 27 92 29 100 2 8 27 92 55 185 56 189 150 512 156 535 2
8 4 15 5 15 1 0 3 7 5 15 4 18 37 134 58 205 38 127 79 268 82 283 2 9 19 68
38 130 19 61 32 112 30 112 -2 0 1 9 7 21 6 11 13 28 15 37 2 9 20 73 40 142
20 69 43 148 51 175 20 70 20 72 44 150 11 39 22 77 24 85 2 8 15 53 29 100
98 333 119 407 123 420 2 8 20 69 39 135 20 66 38 127 40 135 1 8 10 38 19 65
47 153 76 262 76 291 0 43 -41 77 -87 72 -18 -2 -34 -1 -35 2 -2 3 -35 4 -74
2z"/>
<path d="M2789 4806 c-2 -2 -21 -6 -41 -9 -61 -8 -74 -29 -84 -137 -12 -126
-10 -142 24 -162 23 -14 105 -24 137 -18 6 1 14 2 18 1 7 -1 115 -1 172 0 60
2 100 46 90 101 -3 12 -7 52 -11 88 -3 36 -7 70 -7 75 -2 11 -36 44 -46 46 -3
0 -15 2 -26 4 -21 4 -55 6 -148 5 -33 0 -62 2 -67 5 -4 2 -9 3 -11 1z"/>
<path d="M3980 4782 c-39 -31 -39 -54 6 -205 20 -67 39 -135 41 -152 3 -16 9
-35 14 -41 5 -6 10 -19 12 -30 6 -31 18 -76 33 -121 7 -23 16 -52 18 -65 4
-17 64 -220 75 -253 2 -6 6 -22 20 -70 6 -22 22 -78 37 -125 14 -47 28 -94 30
-105 7 -27 8 -32 24 -85 8 -25 14 -48 16 -52 1 -5 2 -9 4 -10 2 -4 7 -24 15
-62 3 -16 8 -33 11 -37 2 -4 24 -76 48 -161 25 -84 56 -193 71 -243 15 -49 28
-97 31 -105 11 -40 36 -126 69 -240 21 -69 38 -129 40 -135 1 -5 5 -17 8 -25
3 -8 9 -28 13 -45 10 -41 11 -45 14 -47 1 -2 3 -10 5 -18 8 -36 77 -277 85
-295 7 -18 109 -364 114 -390 2 -5 9 -30 16 -55 7 -25 15 -49 16 -55 8 -27 36
-122 69 -235 20 -69 47 -161 60 -205 18 -63 31 -87 59 -112 20 -18 44 -33 53
-34 10 0 27 -2 38 -5 17 -3 52 -4 118 -3 9 0 79 0 155 -1 204 -1 237 4 278 35
68 52 79 125 34 230 -12 28 -25 59 -30 70 -4 11 -15 36 -23 55 -14 33 -31 73
-122 295 -20 50 -43 105 -51 123 -34 78 -44 102 -79 187 -20 50 -45 109 -56
132 -10 24 -19 45 -19 47 0 5 -65 162 -110 266 -11 25 -43 101 -71 170 -51
125 -67 162 -93 223 -8 17 -24 57 -36 87 -22 57 -33 82 -69 162 -11 26 -21 50
-21 53 0 3 -9 25 -20 50 -11 25 -29 65 -40 90 -11 25 -20 47 -20 51 0 3 -13
36 -29 72 -16 37 -54 130 -86 207 -31 77 -63 154 -70 170 -8 17 -28 64 -45
105 -17 41 -35 84 -40 95 -5 11 -39 92 -75 180 -159 386 -145 351 -174 417
-12 26 -21 50 -21 53 0 7 -38 92 -55 125 -7 14 -13 30 -13 35 -1 6 -10 20 -22
32 -16 17 -31 21 -75 20 -30 -1 -55 0 -55 3 0 3 -23 5 -50 5 -38 0 -58 -6 -80
-23z"/>
<path d="M2776 4163 c-2 -2 -33 -5 -70 -6 -57 -2 -68 -5 -83 -27 -10 -14 -18
-34 -19 -45 -11 -106 -22 -204 -29 -265 -3 -19 -7 -66 -10 -105 -4 -38 -8 -71
-10 -73 -14 -14 48 -109 75 -113 3 0 14 -3 25 -5 11 -2 57 -4 103 -4 45 0 119
0 165 0 177 -1 197 1 232 24 20 13 59 98 50 108 -2 2 -6 30 -9 63 -4 33 -9 85
-13 115 -11 101 -12 115 -19 190 -6 72 -27 129 -49 131 -5 0 -19 2 -30 4 -31
7 -215 9 -220 3 -3 -3 -23 -2 -45 2 -22 4 -41 5 -44 3z"/>
<path d="M2581 3179 c-70 -41 -84 -71 -96 -214 -3 -38 -8 -88 -11 -110 -2 -22
-7 -59 -9 -83 -2 -23 -7 -66 -10 -95 -3 -29 -7 -70 -9 -91 -5 -45 16 -112 42
-137 40 -37 80 -50 152 -49 25 0 72 0 105 0 33 0 80 0 105 1 25 0 52 1 60 0
78 -2 242 0 267 3 50 7 89 32 114 72 24 40 27 78 15 194 -18 166 -25 238 -31
305 -12 129 -32 172 -95 206 -33 17 -86 21 -242 18 -10 0 -38 0 -63 0 -25 0
-51 0 -57 0 -7 0 -53 1 -102 3 -81 3 -93 1 -135 -23z"/>
<path d="M2649 2085 c-3 -2 -42 -5 -87 -6 -45 -1 -82 -6 -82 -10 0 -5 -7 -9
-15 -9 -20 0 -64 -46 -77 -80 -10 -25 -15 -66 -22 -155 -3 -27 -7 -63 -10 -80
-2 -16 -7 -59 -11 -95 -6 -78 -12 -137 -20 -205 -4 -27 -8 -69 -10 -92 -2 -23
-7 -68 -11 -100 -15 -112 -11 -186 13 -219 46 -64 87 -76 256 -75 56 1 109 1
117 2 8 0 44 0 80 0 89 -1 417 -1 453 0 6 0 28 0 47 -1 80 -2 129 17 166 66
25 32 29 46 28 98 0 34 -4 88 -8 121 -3 33 -9 85 -12 115 -3 30 -7 66 -9 80
-1 14 -6 59 -10 100 -4 41 -9 89 -11 105 -2 17 -6 54 -9 84 -5 53 -8 87 -20
186 -3 27 -13 63 -21 80 -15 33 -68 73 -104 80 -18 3 -140 6 -200 4 -26 -1
-313 0 -354 1 -22 1 -43 3 -46 5 -4 3 -9 3 -11 0z"/>
</g>
</svg>
